HIERARCHY
ROOT Hips
{
	OFFSET	0.00	0.00	0.00
	CHANNELS 6 Xposition Yposition Zposition Zrotation Xrotation Yrotation
	JOINT LeftUpLeg
	{
		OFFSET	 0.126116	-0.065224	 0.014019
		CHANNELS 3 Zrotation Xrotation Yrotation
		JOINT LeftLeg
		{
			OFFSET	 0.000000	 0.569914	 0.000000
			CHANNELS 3 Zrotation Xrotation Yrotation
			JOINT LeftFoot
			{
				OFFSET	 0.000000	 0.544423	 0.000000
				CHANNELS 3 Zrotation Xrotation Yrotation
				JOINT LeftToeBase
				{
					OFFSET	 0.000000	 0.207117	 0.000000
					CHANNELS 3 Zrotation Xrotation Yrotation
					End Site
					{
						OFFSET	 0.000000	 0.207117	 0.000000
					}
				}
			}
		}
	}
	JOINT RightUpLeg
	{
		OFFSET	-0.124023	-0.065224	 0.008373
		CHANNELS 3 Zrotation Xrotation Yrotation
		JOINT RightLeg
		{
			OFFSET	 0.000000	 0.570047	 0.000000
			CHANNELS 3 Zrotation Xrotation Yrotation
			JOINT RightFoot
			{
				OFFSET	 0.000000	 0.544354	 0.000000
				CHANNELS 3 Zrotation Xrotation Yrotation
				JOINT RightToeBase
				{
					OFFSET	 0.000000	 0.207540	 0.000000
					CHANNELS 3 Zrotation Xrotation Yrotation
					End Site
					{
						OFFSET	 0.000000	 0.207540	 0.000000
					}
				}
			}
		}
	}
	JOINT Spine
	{
		OFFSET	 0.000184	 0.117403	 0.007763
		CHANNELS 3 Zrotation Xrotation Yrotation
		JOINT Spine1
		{
			OFFSET	 0.000000	 0.137269	 0.000000
			CHANNELS 3 Zrotation Xrotation Yrotation
			JOINT Spine2
			{
				OFFSET	 0.000000	 0.156879	 0.000000
				CHANNELS 3 Zrotation Xrotation Yrotation
				JOINT LeftShoulder
				{
					OFFSET	 0.080501	 0.160143	 0.002496
					CHANNELS 3 Zrotation Xrotation Yrotation
					JOINT LeftArm
					{
						OFFSET	 0.000000	 0.164363	 0.000000
						CHANNELS 3 Zrotation Xrotation Yrotation
						JOINT LeftForeArm
						{
							OFFSET	 0.000000	 0.364576	 0.000000
							CHANNELS 3 Zrotation Xrotation Yrotation
							JOINT LeftHand
							{
								OFFSET	 0.000000	 0.360812	 0.000000
								CHANNELS 3 Zrotation Xrotation Yrotation
								JOINT LeftHandIndex1
								{
									OFFSET	 0.000000	 0.086006	 0.000000
									CHANNELS 3 Zrotation Xrotation Yrotation
									JOINT LeftHandIndex2
									{
										OFFSET	 0.000000	 0.047237	 0.000000
										CHANNELS 3 Zrotation Xrotation Yrotation
										JOINT LeftHandIndex3
										{
											OFFSET	-0.004284	 0.038165	 0.000551
											CHANNELS 3 Zrotation Xrotation Yrotation
											End Site
											{
												OFFSET	-0.004284	 0.038165	 0.000551
											}
										}
									}
								}
							}
						}
					}
				}
				JOINT Neck
				{
					OFFSET	 0.000000	 0.176489	 0.000000
					CHANNELS 3 Zrotation Xrotation Yrotation
					JOINT Head
					{
						OFFSET	 0.000000	 0.077941	 0.001747
						CHANNELS 3 Zrotation Xrotation Yrotation
						End Site
						{
							OFFSET	 0.000000	 0.077941	 0.001747
						}
					}
				}
				JOINT RightShoulder
				{
					OFFSET	-0.080363	 0.159706	-0.000306
					CHANNELS 3 Zrotation Xrotation Yrotation
					JOINT RightArm
					{
						OFFSET	 0.000000	 0.164196	 0.000000
						CHANNELS 3 Zrotation Xrotation Yrotation
						JOINT RightForeArm
						{
							OFFSET	 0.000000	 0.365611	 0.000000
							CHANNELS 3 Zrotation Xrotation Yrotation
							JOINT RightHand
							{
								OFFSET	 0.000000	 0.360648	 0.000000
								CHANNELS 3 Zrotation Xrotation Yrotation
								JOINT RightHandIndex1
								{
									OFFSET	 0.000000	 0.069977	 0.000000
									CHANNELS 3 Zrotation Xrotation Yrotation
									JOINT RightHandIndex2
									{
										OFFSET	 0.000000	 0.052305	 0.000000
										CHANNELS 3 Zrotation Xrotation Yrotation
										JOINT RightHandIndex3
										{
											OFFSET	 0.009002	 0.042196	 0.000782
											CHANNELS 3 Zrotation Xrotation Yrotation
											End Site
											{
												OFFSET	 0.009002	 0.042196	 0.000782
											}
										}
									}
								}
							}
						}
					}
				}
			}
		}
	}
}
MOTION
Frames:    12
Frame Time: 0.03333334
-0.110096	 1.195243	-0.044103	-3.337739	-5.078086	 130.646100	-149.262400	 5.761632	-84.047310	 14.271510	-42.798510	 12.791710	-0.147069	 84.305400	-9.226230	 1.124406	 26.178090	-2.644900	 170.953800	 30.062140	 9.205162	-3.636068	-39.931310	-8.038338	-29.934280	 67.512490	 35.196320	-1.314953	 28.712190	 2.721603	 10.668770	-1.573955	-43.463450	 5.704400	 8.088281	-4.748006	 0.546093	-7.494005	 5.581992	-94.352600	 2.411826	 92.921770	 8.209409	 48.465610	 10.939980	 9.832722	-0.244760	-4.739468	 9.654385	 15.112600	-7.415330	 7.941886	-14.117480	 2.072494	-5.877308	 19.060870	 2.109533	 5.367880	 5.193212	-0.153802	 3.064163	-5.639173	 4.471959	-3.946214	-9.532979	 26.469030	 96.128850	 3.539755	-73.285180	 13.198100	 17.553650	 16.855540	-72.428760	-1.948855	 3.181835	-22.575330	-35.162590	 20.370170	-6.058008	 16.591570	 1.253721	 18.825580	 53.673660	-16.002490	-8.337092	 37.503310	-2.210643
-0.129359	 1.193754	-0.072288	 0.364722	-5.434918	 140.662600	-148.085400	 9.656271	-74.868640	 15.711720	-45.487360	 10.223060	-30.340940	 84.421600	 22.594680	 1.157536	 26.658110	-2.686652	 167.476000	 23.789730	 20.282280	-3.337700	-37.540430	-5.414145	-22.677320	 69.948510	 29.354460	-1.353357	 29.211990	 2.738249	 10.696930	-0.578057	-34.050050	 4.483042	 5.756922	-4.733097	 1.803881	-5.118039	 1.779595	-91.961770	 1.128187	 92.728030	 5.066906	 54.364730	 11.723380	 10.638660	-0.249505	-5.388229	 16.491110	 13.456420	-5.191141	 7.971978	-14.256220	 2.076378	-5.877225	 19.069810	 2.110498	 5.369817	 5.238846	-0.152998	 4.879275	-5.030807	 4.112460	-4.933815	-8.353048	 24.837650	 87.847110	-7.189189	-61.616950	 5.061111	 15.568460	 29.407390	-96.531500	-2.011670	 2.900937	 5.480462	-41.347130	 32.164250	-5.943627	 16.280700	 1.224372	 18.836810	 53.699090	-16.017150	-8.338623	 37.444980	-2.205916
-0.130012	 1.220161	-0.085727	 5.404432	-4.120481	 160.726600	-151.327700	 15.612270	-53.777960	 12.821390	-39.812580	 4.015983	-24.526640	 74.184290	 18.750400	 1.369727	 29.453860	-2.777843	 167.739500	 10.023740	 40.070310	-2.342197	-28.342970	 6.142211	 4.820267	 71.542330	-1.268969	-1.495993	 31.026900	 2.802756	 6.002152	 1.583113	-7.741215	-1.082397	 2.162051	 0.268647	 4.599943	-1.143408	-5.670043	-92.996280	-0.310441	 92.645460	 32.987200	 45.500550	 0.646643	 11.335570	-0.247395	-6.060419	 34.618990	 17.434740	 2.157204	 7.620256	-11.051220	 1.537801	-5.866208	 20.866030	 2.307034	 5.424228	 6.524053	-0.131095	 6.988972	-6.359155	 1.464561	-0.029588	-5.029849	 13.235280	 83.211580	-11.820600	-45.909800	-20.685740	 19.373930	 56.454030	-114.599100	-1.793389	 2.897518	-2.552426	-37.058750	-6.878691	-5.903206	 15.787880	 1.183915	 18.596960	 53.146720	-15.703100	-8.349840	 37.007570	-2.170644
-0.118193	 1.262017	-0.070593	 8.109241	-2.057876	-179.194600	-158.152400	 18.082840	-28.910860	 7.778730	-26.948250	 7.780491	-1.605469	 56.377380	-5.803199	 1.891800	 35.730900	-2.897614	 168.126200	 4.770302	 57.446420	-2.455620	-29.488830	 12.090690	 14.442560	 65.449780	-14.394280	-2.719993	 44.050540	 3.502384	-3.203639	 3.524479	 28.400120	-8.522234	 0.440077	 7.170414	 8.400139	 0.556662	-13.994480	-98.535030	 2.493785	 93.209920	 64.114170	 28.642050	-11.783320	 12.113460	-0.244917	-6.814604	 61.098530	 33.864500	-6.243121	 4.274461	 42.473840	-2.100871	-7.372769	 53.648240	 7.019189	 6.385897	 29.413230	 0.062192	 5.139371	-9.369119	-1.926810	 7.200233	-5.733769	-3.786788	 74.710950	 0.975332	-44.219100	-24.407100	-0.098060	 21.895510	-12.021640	-0.181972	 6.800004	-26.248280	-30.409930	-41.539490	-4.946485	-4.788739	-0.074920	 12.274470	 18.628940	-4.155260	-8.425620	 6.937323	-0.136669
-0.088539	 1.273189	-0.071465	 11.910340	-4.496035	-161.989900	-160.138100	 23.109380	-12.354490	 4.780112	-17.380590	 8.385387	 5.521447	 48.889390	-9.542094	 1.674414	 33.249850	-2.958239	 168.084600	 10.315370	 58.781350	-3.355391	-37.686810	 6.007372	 8.434023	 62.684200	-3.224108	-4.329274	 55.459260	 4.692182	-6.767226	 2.184914	 53.222460	-11.134710	 5.066726	 10.647220	 9.328856	-3.400360	-19.750170	-101.191000	 3.942660	 93.510430	 61.751880	 24.345380	-17.845530	 12.848990	-0.236986	-7.627669	 73.268160	 42.030090	-15.931820	 3.701131	 55.437300	-2.094925	-8.806214	 61.582440	 9.122816	 6.614748	 34.438440	 0.048556	 3.293921	-11.342880	-3.336725	 5.918675	-8.089532	-13.915790	 99.229180	 26.390390	-97.026820	-18.731330	 12.952410	-3.582718	-40.022760	-1.127569	 7.141316	 17.840590	 15.435680	 12.524310	-4.600969	-14.338390	-0.629389	 11.978450	 2.288319	-0.598157	-8.109268	-6.734174	 0.757584
-0.091726	 1.238523	-0.066422	 12.376940	-7.039888	-160.007000	-161.333500	 32.435480	-11.416990	 8.770810	-29.801910	 12.453970	 15.317940	 59.807440	-17.547290	 1.201200	 27.217080	-2.675357	 169.206800	 12.638430	 55.395180	-3.317345	-37.371680	 5.807409	 10.720290	 77.268850	-2.929496	-2.603500	 42.996900	 3.426271	-7.686914	 1.443899	 68.256440	-11.796840	 6.158831	 12.541170	 9.471560	-3.795628	-21.184090	-102.175700	 2.959229	 93.237930	 54.742750	 30.310710	-6.089572	 13.475630	-0.233417	-8.262308	 36.260320	 39.336510	 49.560350	 3.832800	 55.168660	-2.190499	-8.838638	 61.715490	 9.166295	 6.608764	 34.311210	 0.049228	 3.709981	-12.578270	-3.959335	 6.300972	-10.059140	-16.808880	 101.884000	 28.861720	-97.871770	-17.211590	 25.114030	-17.937160	-60.740760	-1.617423	 7.157765	 40.996060	 18.639510	 17.020000	-4.884219	 13.095250	-0.625135	 14.051340	 36.295790	-8.790664	-8.485438	 29.555850	-1.610056
-0.098508	 1.237292	-0.061357	 10.556880	-7.866702	-160.518700	-163.600000	 32.497510	-12.899560	 8.740335	-29.716540	 12.525980	 18.342220	 61.292260	-19.010980	 1.126475	 26.206270	-2.645705	 168.690700	 10.938390	 57.669640	-2.860831	-33.375210	 9.900628	 24.406980	 80.398150	-19.978770	-1.881642	 35.615370	 2.996871	-7.644901	 1.465245	 68.885070	-11.768510	 5.764730	 12.560820	 9.698275	-3.761391	-20.973200	-103.769600	 2.589756	 93.039430	 45.510170	 40.649070	-4.968533	 14.336290	-0.244016	-8.847878	 12.375260	 27.826800	 78.289510	 3.898481	 55.096830	-2.239067	-8.787056	 61.503310	 9.097098	 6.615655	 34.457920	 0.048482	 4.083704	-11.859190	-3.865026	 4.773803	-9.678104	-16.094310	 103.642000	 27.136110	-97.902480	-9.595457	 30.203220	-22.581930	-49.300300	-1.335171	 8.120790	 25.653910	 12.170990	-1.847966	-4.900554	 13.069700	-0.626321	 14.088090	 36.521240	-8.860884	-8.484212	 29.658160	-1.617321
-0.097133	 1.239781	-0.054338	 6.796968	-6.230644	-167.850500	-163.128400	 26.903470	-21.170690	 8.112506	-27.926240	 11.331240	 16.925790	 63.173840	-17.540120	 1.148930	 26.511820	-2.654482	 166.564500	 9.843881	 51.432080	-2.753366	-32.376260	 10.957000	 22.564060	 78.094770	-19.698950	-1.801028	 34.694550	 2.954047	-5.920298	 3.344754	 56.981660	-11.140480	 4.955672	 11.491180	 9.956627	-3.625173	-19.327400	-104.436200	 2.469710	 92.784310	 39.836270	 50.773740	-11.168030	 15.113860	-0.254565	-9.360341	-1.302681	 22.185090	 73.926530	 3.801919	 54.694280	-2.164560	-8.599874	 60.700680	 8.843142	 6.606879	 34.271040	 0.049441	 4.120135	-10.004090	-3.133019	 2.578622	-8.791261	-12.492550	 106.877900	 24.510750	-98.002680	-10.359170	 36.768250	-13.395160	-15.449890	-0.205341	 9.344879	-4.852485	 6.331814	-14.005870	-4.672914	 12.097730	-0.521396	 13.932260	 35.545250	-8.559743	-8.496808	 28.532930	-1.537915
-0.066353	 1.240006	-0.041592	 2.689198	-3.950181	-177.178100	-162.092900	 19.807460	-31.063550	 6.776660	-23.904150	 10.113160	 12.465190	 63.508600	-14.710560	 1.149221	 26.515870	-2.654594	 166.696900	 8.338066	 43.674500	-2.413116	-29.062360	 11.205520	 22.921330	 77.831370	-20.885390	-1.389660	 29.680180	 2.754271	-2.649154	 5.614849	 30.602390	-9.176443	 1.850922	 8.807489	 9.498240	-0.467890	-16.660730	-105.617700	 3.378030	 92.735570	 23.329240	 54.699950	 4.858495	 15.635440	-0.254050	-9.840075	-5.044677	 17.198870	 72.989170	 2.998015	 47.338260	-1.532495	-7.347360	 53.454550	 6.977087	 6.345089	 28.486560	 0.062151	 4.077313	-8.522052	-2.084100	 1.051340	-6.947993	-6.984793	 110.833700	 20.793010	-97.777080	-2.666722	 35.235810	-14.919390	-15.992850	-0.205694	 9.824755	 12.833400	 18.136650	-2.362030	-3.171642	 6.986315	 0.336966	 12.860440	 26.798060	-6.127650	-8.530023	 17.836050	-0.826124
-0.023746	 1.241105	-0.018368	 0.981738	-2.493982	 177.316400	-160.773200	 14.118860	-36.643360	 4.628261	-16.861360	 4.489932	-0.153083	 60.216090	-2.720509	 1.150605	 26.534750	-2.655144	 168.440200	 8.612573	 38.154060	-2.218119	-27.060340	 10.319030	 20.959070	 76.412540	-17.451680	-1.342382	 29.070200	 2.733454	 1.936969	 5.921049	 0.594407	-7.571221	 0.266064	 6.844655	 9.021743	 1.241060	-14.758840	-107.573900	 4.288352	 92.736210	 35.464480	 43.447090	-1.947026	 15.977320	-0.252712	-10.173630	 6.732728	 22.929120	 47.418330	 1.072108	 20.665210	-0.424955	-5.870749	 25.869760	 2.867110	 5.421596	 6.461863	-0.132134	 3.907995	-7.960648	-1.249584	 0.066043	-6.402607	-3.164140	 115.215200	 17.139620	-97.402600	 2.233031	 40.923110	-12.887120	-16.176060	-0.198705	 10.160510	 6.576128	 26.256830	 2.787741	-2.488126	 4.615470	 0.811848	 12.523710	 22.698150	-5.111151	-8.503390	 13.416470	-0.545344
-0.004297	 1.242210	-0.000502	 0.594867	-1.383399	 173.806800	-160.923000	 10.025710	-39.711170	 3.022687	-11.203390	 0.656052	-6.516844	 56.735600	 3.849236	 1.153010	 26.567420	-2.656098	 169.163800	 9.479872	 35.024090	-2.273561	-27.636960	 9.000218	 14.229620	 76.301410	-11.502010	-1.330435	 28.914740	 2.728265	 5.196254	 4.670011	-22.303110	-5.927760	-1.157458	 5.054725	 8.345849	 2.840624	-13.274050	-109.539900	 5.013441	 92.742890	 37.624270	 36.409760	-4.066129	 16.021870	-0.246349	-10.331830	 16.485040	 26.852050	 30.915510	 0.647086	 11.685990	-0.329050	-5.901934	 16.660750	 1.849427	 5.098219	-1.019426	-0.276952	 3.631195	-7.794657	-0.602082	-0.546925	-5.902811	-0.995001	 118.234500	 14.328570	-96.959590	 0.714229	 38.759570	-8.519094	-16.287210	-0.196350	 10.317640	 4.067230	 28.186910	 1.849307	-2.385699	 4.332191	 0.904779	 12.489390	 22.207680	-4.993447	-8.498696	 12.882690	-0.511653
 0.001290	 1.241084	 0.009636	 0.647676	-0.702647	 171.883300	-160.714200	 8.830964	-41.367050	 2.813095	-10.444930	-0.797856	-9.138614	 55.956630	 6.386634	 1.155662	 26.603360	-2.657147	 169.464400	 9.994675	 33.286680	-2.346974	-28.391700	 8.103208	 9.395980	 76.208250	-7.297359	-1.318506	 28.759080	 2.723118	 6.433840	 4.157339	-29.029590	-4.865228	-2.206739	 3.938670	 7.690751	 4.257716	-11.812830	-111.139000	 5.604309	 92.781260	 37.435420	 34.242800	-5.628574	 15.927160	-0.243841	-10.292470	 19.806590	 27.930360	 23.902740	 0.535924	 8.720554	-0.331870	-5.948164	 13.657380	 1.526534	 4.986536	-3.500906	-0.334431	 3.403856	-7.614712	-0.065976	-0.968197	-5.429486	 0.299816	 120.461900	 12.334920	-96.606370	-3.706198	 36.233050	-3.813392	-16.269180	-0.197392	 10.277160	 5.575002	 26.621010	 0.007785	-2.385708	 4.477960	 0.911372	 12.504840	 22.430690	-5.046883	-8.499900	 13.017110	-0.520139
